<svg viewBox="0 0 1000 1000" xmlns="http://www.w3.org/2000/svg" fill-rule="evenodd" clip-rule="evenodd" stroke-linejoin="round" stroke-miterlimit="2"><path d="M498.654 71.196c.263.072.457.3.49.573.195 1.69.29 3.41.283 5.155-.073 33.77-.076 67.542-.01 101.318a.57.57 0 00.446.545c4.394 1.085 6.727 3.797 7 8.137.28 4.4-1.33 7.488-4.827 9.263-3.007 1.521-5.918 1.564-8.737.127-1.788-.915-3.172-2.215-4.154-3.9-1.091-1.866-1.455-3.83-1.091-5.89.71-3.964 3.118-6.607 7.227-7.928a.651.651 0 00.446-.618c-.03-35.134-.012-70.218.054-105.254 0-.88.24-1.412.718-1.6.516-.207 1.234-.182 2.155.072z" fill="#28357c" fill-rule="nonzero"/><path d="M533 72.15c.821.374 1.362 1.004 1.363 1.592l.227 70.645c-.339 1.734-.415 3.11-.227 4.127.466 2.552-.357 3.491-2.473 2.819-.233-.07-.401-.31-.418-.6l-.29-6.346v-71.1c-.158-1.375.447-1.754 1.817-1.136zM469.59 74.196v68.637c0 .763.089 1.293.264 1.59l-.327 6.073c-.023.325-.16.595-.364.718-.836.491-1.639.449-2.409-.127a.931.931 0 01-.345-.745v-4.537c0-.042.027-.2.081-.472.067-.316-.111-.555-.536-.719l.227-70.418c0-.793.607-1.4 1.818-1.818 1.455-.503 1.985.103 1.591 1.818z" fill="#272f68" fill-rule="nonzero"/><path d="M561.927 75.278c1.66-.266 2.666-.036 3.018.691.066.134.1.93.1 2.39v104.61a.7.7 0 00.427.645c5.146 2.182 7.38 5.676 6.7 10.482-.26 1.848-.945 3.416-2.054 4.7-1.249 1.443-2.782 2.391-4.6 2.846-2.425.606-4.789.272-7.091-1-2.716-1.498-4.188-3.873-4.418-7.128-.164-2.309.342-4.324 1.518-6.045 1.26-1.848 3.054-3.143 5.382-3.882a.623.623 0 00.445-.59l.055-107.11c0-.3.22-.56.518-.609zM439.363 76.024v106.863a.7.7 0 00.427.646c4.691 1.945 7.094 5.097 7.21 9.454.048 1.63-.337 3.116-1.155 4.455a10.075 10.075 0 01-3.382 3.4c-1.952 1.193-4.106 1.579-6.464 1.154-2.624-.472-4.651-1.802-6.081-3.99-1.334-2.037-1.81-4.23-1.428-6.582.552-3.376 2.712-5.928 6.482-7.655.564-.254.928-.818.927-1.436l.11-105.8c-.002-.332.18-.608.418-.637l2.472-.336.028-.003c.223-.013.42.185.435.44l.001.027zM602.145 82.405l3.236.528c.334.054.37.211.11.472l-15.292 15.3c-.389.39-.609.914-.609 1.455l.055 48.754c0 .27.165.517.418.628 2.988 1.363 4.3 3.484 3.936 6.363-.218 1.68-.933 3.067-2.145 4.164-1.4 1.266-3.015 1.764-4.845 1.491-2.321-.346-3.964-1.564-4.928-3.655-1.327-2.879-.184-5.842 3.428-8.89.458-.385.713-.96.69-1.555a277.655 277.655 0 01-.018-20.082 401.31 401.31 0 01-.018-29.082c.012-.309.132-.595.336-.8l14.864-14.754c.251-.245.543-.371.782-.337zM400.709 83.833l13.527 13.536c.373.373.582.876.582 1.4v49.69c0 .31.159.596.418.755 2.927 1.789 4.297 4.034 4.109 6.737-.11 1.503-.685 2.779-1.727 3.827-1.121 1.134-2.498 1.74-4.128 1.818-1.6.085-3.02-.315-4.263-1.2-1.407-1-2.194-2.384-2.364-4.154-.315-3.237.955-5.473 3.81-6.71.446-.198.736-.64.736-1.127v-48.054c0-.53-.22-1.053-.61-1.455L399.045 86.97c-.77-.775-1.41-1.373-1.918-1.79-1.43-1.176-.78-1.835 1.954-1.974.608-.029 1.2.2 1.628.628z" fill="#28357c" fill-rule="nonzero"/><path d="M648.263 95.069l2.7 1.218a.279.279 0 01.048.028c.147.104.173.323.058.486a.37.37 0 01-.042.05l-38.564 38.663a1.13 1.13 0 00-.309.791l-.064 64.428c0 .429.24.823.619 1.018a7.723 7.723 0 012.763 2.327c.673.921 1.048 2.018 1.127 3.291.158 2.588-.757 4.497-2.745 5.727-1.69 1.049-3.543 1.312-5.555.791-2.563-.666-4.011-2.397-4.345-5.19-.188-1.594.094-3.012.845-4.255.794-1.316 1.93-2.337 3.41-3.064a.739.739 0 00.418-.654l.218-66.355c.005-.297.123-.577.327-.782L647.5 95.251c.22-.217.525-.29.764-.182zM354.172 96.16a1478.379 1478.379 0 0137.837 37.936c.198.21.309.488.309.773v66.027a.92.92 0 00.609.864c2.097.752 3.363 2.33 3.8 4.736.393 2.164.02 3.955-1.118 5.373-1.025 1.28-2.489 2.03-4.391 2.255-2.273.272-4.098-.437-5.473-2.128-1.261-1.539-1.77-3.224-1.527-5.054.266-2.037 1.47-3.725 3.609-5.064.53-.327.854-.91.854-1.536v-64.118c0-.355-.14-.695-.39-.946l-37.473-37.582a.5.5 0 01-.041-.048c-.128-.174-.11-.405.039-.514.014-.011.03-.02.047-.029l2.546-1.163c.216-.105.523-.017.763.218z" fill="#272d63" fill-rule="nonzero"/><path d="M698.69 116.387c1.03.188 1.846.543 2.446 1.064.208.179.333.463.345.782.291 9.109.273 18.215-.054 27.318a1.168 1.168 0 01-.337.782l-71.345 71.236c-.214.21-.516.277-.764.173-.715-.303-1.339-.861-1.872-1.673a.575.575 0 01.072-.718l70.673-70.891c.204-.204.318-.486.318-.782l.055-26.909c0-.01 0-.022.002-.033a.392.392 0 01.461-.349zM302.318 118.56v25.054c0 .302.12.591.336.8l70.873 70.882c.198.2.246.495.118.719a5.24 5.24 0 01-1.573 1.745.553.553 0 01-.7-.073l-71.59-71.363a2.933 2.933 0 01-.855-2.055c-.091-8.32-.048-16.2.127-23.636.018-.861.28-1.437.782-1.728.484-.284 1.157-.52 2.018-.709a.379.379 0 01.464.364zM330.881 123.896l27.528 27.191a.76.76 0 00.763.182c3.497-1.085 6.221-.164 8.173 2.764.92 1.388 1.139 2.879.654 4.472-.872 2.898-2.551 4.53-5.036 4.9-2.254.34-4.173-.284-5.754-1.872-1.746-1.758-2.155-4.116-1.228-7.073a.76.76 0 00-.182-.764c-17.715-17.72-26.584-26.588-26.609-26.6-1.49-.902-1.26-2.002.691-3.3a.798.798 0 011 .1zM671.027 123.687l1.618 1.691a.49.49 0 01-.018.673l-27.464 27.454a1.248 1.248 0 00-.318 1.21c.927 3.4.282 5.875-1.936 7.427-1.558 1.09-3.246 1.497-5.064 1.218-1.976-.297-3.503-1.473-4.582-3.527-.884-1.685-.954-3.319-.209-4.9 1.734-3.673 4.603-4.876 8.61-3.61.262.085.55.019.745-.172l27.809-27.455.001-.002c.229-.223.591-.228.804-.01l.004.003zM733.481 135.096l2.528 1.573c.212.128.345.425.345.773l.055 20.49c0 .302-.121.592-.337.8l-68.209 68.1a.713.713 0 00-.164.737c.825 2.316.694 4.336-.39 6.064-1.098 1.752-2.721 2.766-4.873 3.045-1.818.237-3.4-.293-4.746-1.59-1.206-1.17-1.893-2.553-2.063-4.146-.218-2.097.615-3.918 2.5-5.464 1.902-1.563 3.942-1.857 6.118-.882.398.18.87.093 1.182-.218l67.2-67.19c.203-.204.318-.486.318-.783l.109-21.018c0-.37.143-.466.427-.29zM267.772 137.505v18.11c0 .767.305 1.5.846 2.036l66.354 66.354c.307.313.752.456 1.191.382 4.521-.752 7.376.621 8.564 4.118.963 2.837.463 5.037-1.5 6.6-3.6 2.873-6.84 2.4-9.718-1.418-1.255-1.666-1.407-3.706-.455-6.118a.7.7 0 00-.155-.745 6865.8 6865.8 0 01-47.454-47.573 974.342 974.342 0 01-20.491-20.282 2.028 2.028 0 01-.59-1.418l.054-17.837c0-.318.092-.61.263-.827.582-.72 1.44-1.3 2.573-1.736a.385.385 0 01.518.355zM469.854 144.424c2.09.684 3.634 1.87 4.627 3.554.958 1.612 1.24 3.394.846 5.346-.418 2.072-1.516 3.651-3.291 4.736-1.594.975-3.337 1.32-5.227 1.036-2.121-.32-3.761-1.354-4.919-3.1-1.036-1.57-1.433-3.312-1.19-5.227.363-2.903 2.115-4.955 5.254-6.155.425.164.603.403.536.719-.054.272-.081.43-.081.472v4.537c0 .302.128.579.345.745.77.576 1.573.618 2.41.127.204-.123.34-.393.363-.718l.327-6.072zM531.181 144.387l.291 6.346c.017.29.185.53.418.6 2.116.672 2.94-.267 2.473-2.819-.188-1.018-.112-2.393.227-4.127 4.443 1.352 6.464 3.997 6.064 7.937-.225 2.224-1.094 3.984-2.61 5.281-1.745 1.491-3.865 1.958-6.363 1.4a7.994 7.994 0 01-3.09-1.409c-1.128-.842-1.837-1.766-2.128-2.772-1.4-4.885.173-8.364 4.718-10.437z" fill="#28357c" fill-rule="nonzero"/><path d="M766.654 156.95a8.07 8.07 0 012.664 2.119c.176.217.272.5.272.8v6.155c.001.5-.199.981-.554 1.336l-74.973 74.755a.78.78 0 00-.2.754c.6 2.116.691 3.694.273 4.736-1.54 3.873-4.185 5.376-7.937 4.51-1.097-.255-2.048-.73-2.854-1.428-1.066-.92-1.636-1.872-1.71-2.854-.466-6.521 2.492-9.13 8.874-7.828a.814.814 0 00.763-.218l74.364-74.363c.18-.181.288-.455.3-.764l.245-7.455c.001-.022.004-.044.01-.066.044-.164.223-.26.397-.214a.345.345 0 01.066.026zM234.954 159.487l-.136 5.164c-.012.277.107.56.327.782l74.264 74.382c.233.229.577.309.89.209 2.455-.819 4.552-.63 6.291.563 1.576 1.08 2.491 2.707 2.746 4.882.309 2.636-.648 4.585-2.873 5.846-1.794 1.011-3.694 1.193-5.7.545-3.515-1.145-4.754-4.04-3.718-8.682a.928.928 0 00-.255-.873l-74.263-74.154a4.273 4.273 0 01-1.237-2.473c-.484-3.473.6-5.648 3.255-6.527a.283.283 0 01.048-.01.33.33 0 01.361.346z" fill="#272d63" fill-rule="nonzero"/><path d="M183.4 209.424h48.118c.441 0 .861.173 1.163.481l47.728 47.837c.197.19.487.263.763.19 3.782-1.042 6.527-.208 8.237 2.5.981 1.558 1.245 3.237.79 5.037-.533 2.134-1.79 3.53-3.772 4.191-2.4.806-4.57.425-6.51-1.145-2.102-1.698-2.636-4.207-1.6-7.528a.75.75 0 00-.19-.745l-46.71-46.827a1.968 1.968 0 00-1.39-.582l-55.155-.055c-.309 0-.388-.133-.236-.4.939-1.618 2.236-2.588 3.89-2.909.158-.03 1.783-.045 4.873-.045zM769.536 209.433l56.873.209c.312.005.595.12.781.318l2.291 2.464c.212.236.155.354-.172.354l-58.746.11c-.29 0-.573.117-.782.327l-47.19 46.954a.788.788 0 00-.164.864c1.279 2.92.672 5.445-1.818 7.572-1.8 1.528-3.73 1.952-5.791 1.273-2.055-.679-3.416-1.948-4.082-3.809-.582-1.624-.467-3.3.345-5.027 1.516-3.225 4.358-4.24 8.528-3.046a.833.833 0 00.818-.209l47.818-47.818c.349-.349.814-.542 1.29-.536z" fill="#28357c" fill-rule="nonzero"/><path d="M157.418 241.469h58.863c.297 0 .585.121.8.336l40.828 40.71c.191.19.482.257.754.172 2.582-.8 4.764-.5 6.546.9 1.49 1.17 2.348 2.721 2.572 4.655.243 2.133-.536 3.948-2.336 5.445-1.927 1.594-3.982 1.982-6.164 1.164-1.624-.612-2.852-1.621-3.682-3.027-.927-1.564-1.084-3.28-.472-5.146.244-.739.05-1.554-.5-2.1l-38.846-38.736a1.749 1.749 0 00-1.236-.51h-59.4a.743.743 0 01-.727-.581c-.419-1.848-.237-2.934.545-3.255.036-.018.855-.027 2.455-.027zM784.645 241.524h61.482c.293 0 .545.177.609.427.163.624.133 1.52-.091 2.69a.852.852 0 01-.836.692h-59.555c-.407 0-.803.163-1.1.454l-39.555 39.455a.751.751 0 00-.181.754c1.17 3.721.375 6.403-2.382 8.046-1.648.975-3.41 1.236-5.282.782-2.28-.552-3.703-1.921-4.273-4.11-.636-2.442-.212-4.539 1.273-6.29 1.594-1.873 4.045-2.47 7.355-1.791.442.09.907-.05 1.236-.373l40.518-40.418c.21-.204.491-.318.782-.318z" fill="#272d63" fill-rule="nonzero"/><path d="M870.936 263.37a5.123 5.123 0 011.6 1.935.67.67 0 01-.127.755l-10.919 11.11c-.419.424-1.009.663-1.636.663h-55.345c-.677-.001-1.294.385-1.582.99-1.043 2.164-2.688 3.298-4.937 3.4-4.333.212-6.73-1.56-7.19-5.318-.152-1.242 0-2.415.454-3.518.575-1.406 1.403-2.33 2.482-2.772 4.424-1.807 7.524-.807 9.3 3 .239.504.753.827 1.318.827l54.045-.082c.292 0 .576-.114.791-.318l11.037-10.61c.2-.19.5-.217.709-.063zM132.418 265.187l8.772 8.682c.361.356.842.556 1.337.555h53.682a1.63 1.63 0 001.345-.71c2.17-3.193 4.718-4.411 7.645-3.654 1.582.412 2.855 1.275 3.819 2.59 1.115 1.522 1.42 3.162.918 4.92-.612 2.133-1.988 3.61-4.127 4.435-3.08 1.182-5.889-.066-8.428-3.745a1.005 1.005 0 00-.818-.427h-55.836c-.297 0-.578-.115-.782-.318l-9.527-9.419a.757.757 0 01-.2-.763c.272-.891.775-1.621 1.509-2.191a.53.53 0 01.69.045z" fill="#272f68" fill-rule="nonzero"/><path d="M109.818 304.65c33.92-.03 67.842-.01 101.763.055.29 0 .57.119.773.328l14.327 14.327a.815.815 0 00.782.21c4.176-1.116 7.018.084 8.527 3.6 1.049 2.43.828 4.456-.663 6.08-2.873 3.146-5.818 3.537-8.837 1.174-1.23-.964-2.011-2.049-2.345-3.255-.376-1.339-.285-2.757.273-4.254a1.283 1.283 0 00-.319-1.355l-13.272-13.082a1.434 1.434 0 00-1-.418H106.08c-.019 0-.037 0-.056-.004a.346.346 0 01-.28-.441c.734-2.407 2.09-3.394 4.073-2.964zM789.354 304.65l106.764.055c.306 0 .588.123.772.337a6.801 6.801 0 011.391 2.518.348.348 0 01-.327.445H791.127c-.302 0-.584.112-.782.31l-13.573 13.381c-.29.286-.399.72-.282 1.128.685 2.315.403 4.348-.845 6.1-1.352 1.89-3.025 2.815-5.018 2.772-1.77-.03-3.334-.718-4.691-2.063-1.521-1.503-2.037-3.312-1.546-5.428.443-1.92 1.4-3.327 2.873-4.218 1.625-.975 3.588-1.127 5.891-.454.49.145 1.022.004 1.373-.364a276.253 276.253 0 017.509-7.527 199.505 199.505 0 016.545-6.673c.21-.204.488-.318.773-.318z" fill="#28357c" fill-rule="nonzero"/><path d="M90.727 340.105h98.227c.354 0 .708.158.982.437l12.1 12.154c.19.192.49.261.782.182 3.43-.933 6.036-.227 7.818 2.118 1.043 1.364 1.466 2.907 1.273 4.628-.212 1.97-1.1 3.463-2.664 4.481-1.843 1.189-3.836 1.437-5.982.746-2.394-.77-3.803-2.597-4.227-5.482a3.04 3.04 0 01.273-1.8c.642-1.334.49-2.288-.455-2.864a8309.12 8309.12 0 01-10.59-10.59 1.104 1.104 0 00-.783-.319l-98.172-.227h-.031a.407.407 0 01-.379-.454 5.677 5.677 0 011.082-2.646.924.924 0 01.746-.364zM811.918 339.25h101.481c.327 0 .606.152.71.383l1.218 2.69c.01.022.017.045.022.068.033.172-.097.343-.288.38a.397.397 0 01-.08.007c-65.715.134-98.875.152-99.482.055-1.975-.31-3.509.354-4.6 1.99a171.608 171.608 0 00-9.645 9.946.725.725 0 00-.118.755c.684 1.642.757 3.151.218 4.527-1.085 2.752-2.9 4.179-5.445 4.282-2.249.09-4.103-.67-5.564-2.282-1.291-1.43-1.725-3.157-1.3-5.182.388-1.86 1.254-3.248 2.6-4.164 1.618-1.102 3.634-1.33 6.045-.681.49.129 1.012-.01 1.373-.364l12.082-12.082a1.08 1.08 0 01.773-.327z" fill="#272f68" fill-rule="nonzero"/><path d="M68.636 420.387l-.1 13.191a.484.484 0 01-.473.482l-6.99.11a.713.713 0 01-.69-.873l2.69-12.582a.882.882 0 01.517-.637c1.48-.63 3.01-.724 4.591-.282a.61.61 0 01.455.591z" fill="#28357c" fill-rule="nonzero"/><path fill="#28357c" d="M85.941 419.67l10.473-.02.025 14.528-10.472.018zM113.214 419.66l10.236-.018.026 14.545-10.237.018zM140.26 419.66l10.236-.018.025 14.545-10.236.018zM167.312 419.65l10.473.02-.026 14.526-10.472-.018zM194.314 419.67l10.71-.02.024 14.528-10.709.019zM803.476 426.014l10.673.019-.026 14.564-10.673-.02zM830.525 425.996l10.91.038-.052 14.618-10.909-.038zM858.445 426.024h10v14.563h-10zM885.312 426.014l10.655.019-.026 14.6-10.654-.019zM912.463 425.977l10.836.094-.127 14.563-10.836-.094z"/><path d="M940.227 426.042c1.1-.116 1.809.163 2.127.836.01.012.127.652.373 1.918.718 3.721 1.473 7.443 2.263 11.164 0 .016.01.032.01.048a.452.452 0 01-.428.507l-4.5.109h-.009c-.254.002-.473-.222-.473-.496V426.751c0-.363.273-.672.637-.71z" fill="#28357c" fill-rule="nonzero"/><path fill="#28357c" d="M819.578 476.933l10.69-.019.026 14.546-10.69.018zM846.85 476.933l10.455-.018.025 14.545-10.454.018zM874.123 476.933l10.237-.018.025 14.545-10.236.018zM900.947 476.942l10.436-.037.05 14.546-10.435.036zM927.987 476.933l10.69-.019.026 14.546-10.69.018zM58.668 478.742l10.691-.019.026 14.782-10.69.019zM85.941 478.75l10.455-.017.025 14.745-10.454.018zM113.236 478.75h10.218v14.655h-10.218zM140.281 478.76H150.5v14.727h-10.218zM167.76 478.75l10-.017.025 14.764-10 .017zM195.02 478.76l10.454-.036.051 14.745-10.454.036zM828.012 532.369l10.691.019-.025 14.545-10.691-.019zM855.032 532.388l10.91-.02.025 14.546-10.91.02zM882.305 532.388l10.91-.02.024 14.546-10.909.02zM909.578 532.388l10.69-.02.026 14.546-10.69.019zM937.069 532.387l10.236-.018.025 14.546-10.236.018zM52.642 545.17l3.052-.118.554 14.426-3.052.117zM72.305 545.115l10.69-.019.026 14.546-10.69.018zM99.805 545.114l10.236-.017.026 14.545-10.237.018zM126.85 545.115l10.91-.02.025 14.546-10.91.02zM154.123 545.115l10.691-.019.025 14.546-10.69.018zM181.447 545.078l10.618.055-.076 14.546-10.618-.056zM813.441 591.023l10.219-.017.025 14.545-10.218.018zM840.487 591.024l10.909-.019.025 14.545-10.909.02zM867.769 591.024l10.672-.019.026 14.564-10.673.018zM895.032 591.024l10.455-.019.025 14.564-10.454.018zM922.314 591.023l10.218-.017.026 14.563-10.219.018zM77.305 596.478l10.454-.018.026 14.782-10.454.018zM105.032 596.587l10-.018.026 14.655-10 .017zM132.301 596.596l10.218-.036.051 14.655-10.218.036zM159.367 596.47l10.236.017-.026 14.764-10.236-.018zM186.396 596.478l10.454-.018.026 14.782-10.455.018z"/><path d="M60.454 597.215l.045 8.745c.012 2.643-.206 2.66-.654.055-.37-2.14-.74-4.325-1.11-6.555l-.326-1.31c-.303-1.21.224-1.708 1.581-1.49.263.04.46.276.464.555z" fill="#28357c" fill-rule="nonzero"/><path d="M209.627 675.66a6.49 6.49 0 012.036 2.936c.534 1.534.418 3.125-.345 4.773-1.48 3.17-4.255 4.221-8.328 3.155-.41-.107-.847.01-1.145.309l-11.773 11.863a3.12 3.12 0 01-2.227.946l-98.264-.218c-.31 0-.595-.101-.8-.282-.775-.685-1.172-1.555-1.19-2.61v-.004a.461.461 0 01.458-.459h.005l98.527-.054c.591 0 1.158-.244 1.564-.673 2.424-2.564 4.679-4.812 6.764-6.746a202.966 202.966 0 004.318-4.145c.52-.504.66-1.288.345-1.936-.563-1.17-.627-2.349-.19-3.537 1.315-3.575 3.678-5.124 7.09-4.645 1.237.17 2.288.612 3.155 1.327zM799.4 675.66c2.127 1.618 2.748 4.057 1.863 7.318-.123.46.006.947.336 1.273l11.573 11.39c.204.204.488.319.791.319l102.1.055h.023c.234.011.417.21.406.439 0 .008 0 .016-.002.024-.163 1.648-.824 2.648-1.981 3-.261.073-1.307.112-3.137.118-32.933.067-65.709.085-98.327.055-.832 0-1.628-.331-2.21-.918l-11.917-11.918a1.247 1.247 0 00-1.31-.291c-2.43.879-4.606.518-6.527-1.082-1.479-1.237-2.202-2.712-2.172-4.427.066-3.498 1.46-5.652 4.181-6.464 2.328-.691 4.43-.321 6.31 1.109z" fill="#272f68" fill-rule="nonzero"/><path d="M236.354 711.45c1.03 2.62.197 4.955-2.5 7.01-1.727 1.315-3.77 1.47-6.127.464a.674.674 0 00-.728.127l-14.281 14.182c-.471.47-1.106.736-1.764.736h-98.41c-2.793 0-4.917-.06-6.372-.182a1.355 1.355 0 01-.79-.336 4.623 4.623 0 01-1.246-1.991.69.69 0 01.645-.9H209.41c.627 0 1.223-.245 1.654-.682l13.218-13.318a.674.674 0 00.128-.727c-.83-2.048-.828-3.788.009-5.218 1.993-3.389 4.457-4.561 7.39-3.519 2.189.776 3.703 2.228 4.546 4.355zM772.49 707.16c3.589 1.212 4.919 4.16 3.991 8.845-.068.34.038.691.282.937l13.1 13.09c.338.338.793.528 1.264.528H899.68a.356.356 0 01.336.455c-.642 2.279-1.997 3.263-4.063 2.954-35.51.03-71.018.012-106.527-.054-.297 0-.578-.115-.782-.319l-14.055-14.072a1.766 1.766 0 00-1.69-.464c-2.498.643-4.534.334-6.11-.927-2.836-2.267-3.36-5.037-1.572-8.31.72-1.327 1.811-2.236 3.272-2.727 1.273-.43 2.607-.409 4 .064z" fill="#28357c" fill-rule="nonzero"/><path d="M262.454 743.487a4.54 4.54 0 012.61 1.11c1.787 1.538 2.684 3.293 2.69 5.263.006 1.903-.743 3.5-2.245 4.79-1.837 1.57-4.191 1.99-7.064 1.255a.808.808 0 00-.764.2l-40.536 40.428c-.257.25-.596.39-.946.39l-61.327-.054c-.303.001-.563-.176-.627-.427-.14-.564-.094-1.41.136-2.537a.779.779 0 01.764-.618l59.382-.054c.297 0 .58-.115.79-.318l39.637-39.528c.2-.199.288-.488.236-.772-.302-1.619-.427-2.607-.372-2.964.66-4.521 3.206-6.576 7.636-6.164zM745.872 748.515c.291 1.297.155 2.6-.409 3.909a.668.668 0 00.136.736l39.446 39.564c.366.36.86.563 1.373.563h59.054a1.337 1.337 0 011.327 1.237c.134 1.745-.388 2.57-1.563 2.472a66.605 66.605 0 00-.846-.072h-59.672c-.443 0-.871-.177-1.191-.491l-40.182-40.182a.95.95 0 00-.791-.282c-6.606.685-9.664-1.657-9.173-7.027.14-1.54.767-2.803 1.882-3.791 2.873-2.546 5.757-2.47 8.655.227 1.054.976 1.706 2.021 1.954 3.137z" fill="#272d63" fill-rule="nonzero"/><path d="M209.054 758.933c1.03 1.497 1.33 3.109.9 4.836-.545 2.157-1.875 3.676-3.99 4.555-2.698 1.12-5.258.333-7.683-2.364a5.301 5.301 0 00-1.09-1.682.958.958 0 00-.782-.263c-2.746.279-5.491.281-8.237.009-15.345.139-30.688.215-46.027.227-.29 0-.57.118-.773.327l-10.127 10.118a.761.761 0 01-.071.063c-.322.253-.785.208-1.025-.098a.806.806 0 01-.05-.074l-1.163-1.972a.615.615 0 01.109-.737l10.618-10.8c.326-.332.79-.518 1.282-.518h55.664c.444 0 .856-.235 1.081-.618 1.982-3.346 4.53-4.561 7.646-3.646 1.588.461 2.827 1.34 3.718 2.637zM803.227 760.024c.196.332.556.536.945.536h55.8c.407 0 .8.164 1.091.455l12.864 12.863c.182.184.202.48.045.691l-1.5 2.036-.024.032a.493.493 0 01-.721.041l-11.791-11.8a2.339 2.339 0 00-1.655-.682h-54.136a.99.99 0 00-.836.455c-1.855 2.86-4.016 4.197-6.482 4.009-2.285-.17-4.082-1.357-5.391-3.564-1.261-2.127-1.1-4.224.482-6.29 1.302-1.703 2.92-2.621 4.854-2.755 2.6-.176 4.752 1.148 6.455 3.973z" fill="#272f68" fill-rule="nonzero"/><g><path d="M504.645 226.75c18.097-.102 35.712 1.489 52.845 4.774 50.34 9.648 94.916 30.951 133.728 63.909 4.624 3.927 9.109 8 13.454 12.218 36.007 34.975 61.416 76.797 76.227 125.464.643 2.109 1.076 3.97 1.3 5.581a.53.53 0 01-.363.591l-12.873 3.837a.47.47 0 01-.573-.328c-15.811-55.775-45.724-102.018-89.736-138.727a245.077 245.077 0 00-14.382-11.127c-46.812-33.516-99.897-50.755-159.254-51.718a.9.9 0 01-.882-.891l.054-13.128c0-.12.049-.236.133-.321a.458.458 0 01.322-.133z" fill="#e51d1d" fill-rule="nonzero"/><path fill="#e51d1d" d="M243.698 391.044l13.108 6.593-.523 1.04-13.108-6.594zM236.165 408.295l13.673 5.221-3.75 9.818-13.672-5.221zM220.722 461.571l14.266 2.644-1.911 10.316-14.267-2.645zM227.055 434.406l14.133 3.734-2.717 10.283-14.133-3.734z"/><path d="M785.945 456.47c.25-.047.493.108.536.344l1.864 9.6.002.013c.04.247-.13.481-.376.521l-.017.003-12.818 1.7a.762.762 0 01-.837-.6l-1.881-8.764-.002-.008a.457.457 0 01.37-.525l.013-.003 13.146-2.282zM791.127 483.842l.818 10.254v.007c.018.259-.168.485-.412.502h-.006l-13.437.837c-.297.018-.559-.187-.59-.464l-.919-9.027c-.026-.242.176-.468.455-.51l13.618-1.99.017-.003a.42.42 0 01.454.38l.002.014zM217.363 489.07l13.418 1.38c.264.027.47.245.482.51.17 3.066-.07 6.1-.718 9.1a.569.569 0 01-.555.445c-3.188-.011-6.37-.127-9.545-.345a831.28 831.28 0 01-3.982-.1h-.014a.419.419 0 01-.387-.448l.001-.016.836-10.118v-.004c.023-.244.23-.427.459-.406l.005.001z" fill="#e51d1d" fill-rule="nonzero"/><path fill="#e51d1d" d="M777.763 511.482l14.545-.026.02 10.91-14.546.025z"/><path d="M230.063 517.65c.503 3.146.594 6.307.273 9.483a.266.266 0 01-.055.145c-.054.061-.112.073-.172.037-.13-.069-.241-.106-.291-.1l-12.946.69h-.005a.867.867 0 01-.904-.821v-.006l-.373-9.418a.466.466 0 01.419-.49c4.509-.4 9.018-.4 13.527 0 .267.02.486.22.527.48zM777.372 538.36l13.41.955c.261.019.468.241.472.509a46.98 46.98 0 01-.727 10.009.479.479 0 01-.537.39l-13.281-1.927c-.39-.053-.669-.43-.628-.845l.81-8.655c.025-.26.241-.455.481-.436zM231.681 544.024l1.437 9.418v.003a.457.457 0 01-.397.506h-.003l-13.519 1.927c-.262.035-.507-.123-.563-.363a36.396 36.396 0 01-.837-10.119c.018-.282.218-.513.473-.545l12.737-1.373a.626.626 0 01.672.546z" fill="#e51d1d" fill-rule="nonzero"/><path fill="#e51d1d" d="M773.44 564.216l14.524 2.745-1.968 10.415-14.525-2.744z"/><path d="M235.018 569.905a.617.617 0 01.709.428l2.336 8.6.001.002c.07.27-.1.551-.375.623l-.008.002-13.054 3.327c-.254.063-.511-.075-.573-.309l-2.518-9.8-.002-.009c-.05-.234.118-.47.372-.524l.012-.003 13.1-2.337z" fill="#e51d1d" fill-rule="nonzero"/><path fill="#e51d1d" d="M767.312 590.375l14.064 4.246-2.98 9.87-14.064-4.247z"/><path d="M242.19 596.042l3.4 8.636.007.017c.08.22-.04.469-.264.55l-.015.006-13.191 4.2a.017.017 0 01-.007.002c-.248.078-.51-.047-.581-.275l-.003-.009-2.737-9.309a.411.411 0 01.291-.5l12.51-3.627c.242-.066.5.069.59.309z" fill="#e51d1d" fill-rule="nonzero"/><path fill="#e51d1d" d="M758.892 615.454l13.67 5.33-1.11 2.846-13.67-5.33z"/><path d="M250.818 620.242a.457.457 0 01.59.245c24.225 55.673 61.928 98.925 113.11 129.755a237.6 237.6 0 0015.918 8.79c38.57 19.383 79.673 29.264 123.309 29.646.257.005.468.211.473.464l.09 13.554v.005c.003.289-.25.529-.559.532h-.004a320.155 320.155 0 01-31.9-1.846 255.63 255.63 0 01-17.982-2.6c-57.927-10.472-108.13-36.254-150.609-77.345-28.073-27.157-49.836-58.882-65.29-95.173-.002 0-.002-.002-.003-.004a.621.621 0 01.32-.813v-.001l12.537-5.21z" fill="#e51d1d" fill-rule="nonzero"/></g><g fill-rule="nonzero"><path d="M349.754 343.787c.74.946 1.464 1.894 2.173 2.846 3.412 4.582 8.012 6.497 13.8 5.745 4.29-.557 8.315.291 12.072 2.546.019.011 1.864 1.3 5.537 3.863a345.29 345.29 0 015.49 3.91c5.34 3.89 11.085 4.548 17.237 1.972 3.757-1.57 6.81-3.184 9.155-4.845 4.8-3.407 9.472-6.303 14.018-8.691 3.63-1.903 6.597-2.955 8.9-3.155 3.473-.303 6.666.576 9.582 2.637 2.806 1.988 5.43 4.557 7.872 7.709 3.376 4.363 5.23 6.693 5.564 6.99 2.843 2.552 6.188 4.01 10.036 4.373 3.28.303 6.034-.26 8.264-1.69 2.612-1.68 4.227-4.282 4.845-7.81.298-1.684.561-3.518.791-5.5a.873.873 0 011.273-.664c3.412 1.782 6.212 4.055 8.4 6.819 3.697 5.236 7.388 10.479 11.073 15.727 6.606 9.394 15.703 12.906 27.29 10.536a592.856 592.856 0 0112.61-2.427c4.643-.836 8.184.7 10.627 4.61a40.117 40.117 0 002.718 3.827c2.964 4.309 7.307 5.83 13.028 4.563a.901.901 0 00.69-.763c.4-3.103 1.51-6.098 3.328-8.982.715-1.14 1.712-1.507 2.99-1.1 1.546.49 2.93 1.336 4.155 2.536.43.415.49 1.09.137 1.573a68.382 68.382 0 01-5.255 6.354c-1.388 1.485-1.964 3.255-1.727 5.31.236 2.042-.088 3.879-.973 5.509-.352.648-1.44 2.075-3.264 4.281a47.586 47.586 0 01-4.718 4.937c-1.206 1.097-1.709 2.27-1.509 3.518l.773 4.954c.06.389.06.68 0 .873-1.103 3.54-3.382 5.585-6.837 6.137a2.674 2.674 0 00-1.909 1.318c-1.133 2.018-2.318 3.763-3.554 5.236-1.564 1.866-3.207 3.121-4.927 3.764-2.716 1.018-5.321.597-7.819-1.264-3.679-2.745-7.324-3.182-10.936-1.309-1.806.934-2.673 2.312-2.6 4.136a1.29 1.29 0 01-1.055 1.319c-1.448.26-2.515.93-3.2 2.009-.424.666-.663 1.8-.718 3.4a90.63 90.63 0 01-1.018 10.7 1.668 1.668 0 01-1.427 1.39c-2.376.31-4.755.512-7.137.61-2.702.115-4.697.506-5.981 1.172-2.03 1.055-3.691 2.61-4.982 4.664-.916 1.448-2.461 2.18-4.637 2.19-3.345.025-5.763-1.17-7.254-3.58-1.94-3.116-4.103-5.61-6.491-7.483-.812-.636-1.188-1.47-1.127-2.5.248-4.163.148-7.752-.3-10.763-.31-2.121-1.152-3.958-2.528-5.51a1.43 1.43 0 00-.754-.427c-1.97-.46-3.666-1.4-5.091-2.818a.863.863 0 01-.245-.773c.315-1.806.802-3.57 1.463-5.29.28-2.685-.863-3.907-3.427-3.664-.77.073-1.18.112-1.227.118-2.48.12-4.698.127-6.655.018-1.327-.079-2.348-.675-3.064-1.79-.89-1.407-1.881-2.483-2.972-3.228-1.007-.69-2.355-1.06-4.046-1.11a20.25 20.25 0 00-8.709 1.655c-1.515.649-2.884 1.025-4.109 1.128-1.988.175-3.975.363-5.964.563-1.588.085-3.045-.579-4.372-1.99-3.812-4.037-8.621-5.612-14.428-4.728-.3.047-.597-.03-.818-.209a19.508 19.508 0 01-3.854-4.045c-.94-1.321-1.837-2.128-2.691-2.419-1.503-.509-3.027-.381-4.573.382-2.152 1.055-3.064 2.894-2.736 5.518.242 1.964-.57 3.103-2.437 3.419-1.879.315-3.302-.094-4.272-1.228-.685-.806-1.055-2.051-1.11-3.736a20.51 20.51 0 011.355-8.045c.106-.28.106-.58 0-.837-.8-1.952-1.97-3.609-3.509-4.973-.83-.739-1.997-1.227-3.5-1.463a48.542 48.542 0 01-6.01-1.327c-2.933-.189-5.333.827-7.2 3.045-1.333 1.588-2.545 3.394-3.635 5.418a1.379 1.379 0 01-1.8.582l-4.937-2.327c-1.715-.812-3.233-.503-4.554.927-1.807 1.957-3.619 2.318-5.437 1.082-1.484-1.012-2.454-2.055-2.909-3.127-.473-1.103-.352-2.137.364-3.1 1.503-2.03 1.718-3.673.645-4.928-.679-.793-1.918-1.29-3.718-1.49a40.633 40.633 0 00-6.818-.192c-4.243.225-8.482.43-12.718.619-4.28.181-7.748-.416-10.41-1.791-2.218-1.152-3.978-1.588-5.281-1.31-1.212.255-2.655.207-4.327-.145a.204.204 0 01-.048-.014.197.197 0 01-.087-.263.237.237 0 01.025-.041c1.655-2.09 3.828-3.38 6.519-3.864 1.715-.309 4.279-.457 7.69-.445 5.661.024 9.828-2.476 12.5-7.5 1.025-1.921 1.837-4.412 2.437-7.473a1425 1425 0 011.409-7.173c2.043-8.2 4.934-16.079 8.673-23.636a.493.493 0 01.827-.082z" fill="#fff"/><path d="M649.645 381.187c3.709 2.018 6.197 4.794 7.464 8.328.297.818.66 3.518 1.09 8.1.952 9.993 5.176 18.506 12.673 25.536 4.752 4.46 9.725 8.66 14.918 12.6a117.049 117.049 0 018.173 6.8c4.794 3.86 8.576 8.503 11.346 13.927.011.025.518 1.261 1.518 3.71 2.09 5.102 6.197 7.424 12.318 6.963 1.557-.121 1.675.236.354 1.073-1.775 1.12-3.672 2.551-5.69 4.29-3.667 3.152-5.3 7.198-4.9 12.137.357 4.448 2.079 9.015 5.163 13.7a51.652 51.652 0 015.018 9.727c1.007 2.576.852 4.976-.463 7.2-1.71 2.88-3.052 5.464-4.028 7.755-.12.279-.036.375.255.29l9.755-2.872a1.51 1.51 0 01.872.009c3.794 1.175 5.398 3.766 4.81 7.773-.042.29-.175.562-.382.782-2.152 2.333-3.83 4.002-5.037 5.009-3.843 3.211-5.112 7.151-3.809 11.818.188.666.53 1.473 1.027 2.418.521.994.916 1.775 1.182 2.345a1.36 1.36 0 01-1.055 1.91c-5.26.702-8.77 2.645-10.527 5.827-1.46 2.654-2.375 6.727-2.745 12.218-.37 5.455-.73 10.912-1.082 16.373-.497 7.563-3.652 13.679-9.464 18.345-1.57 1.255-3.975 1.727-7.218 1.418a37.75 37.75 0 00-7.245-1.109c-2.782-.152-5.161.212-7.137 1.091-2.133.957-3.99 2.34-5.572 4.146a1062.433 1062.433 0 01-2.137 2.445 38.438 38.438 0 01-2.681 2.491 1.255 1.255 0 01-1.855-.282c-3.625-5.636-8.394-8.945-14.31-9.927-4.763-.788-9.13-.1-13.1 2.064-4.21 2.297-7.175 6.009-8.89 11.136-1.843 5.527-1.473 10.675 1.11 15.445 1.38 2.552 2.32 4.603 2.817 6.155.095.278.101.583.018.873-.715 2.497-1.602 4.379-2.663 5.645a1617.649 1617.649 0 01-27.018 31.418l-.02.021a.818.818 0 01-1.15.037l-.021-.021c-5.461-5.57-11.712-6.549-18.755-2.937a30.012 30.012 0 00-7.6 5.546c-3.206 3.212-5.32 5.115-6.345 5.709-3.746 2.17-7.364 3.097-10.855 2.782a272.185 272.185 0 01-15.973-1.928.576.576 0 01-.436-.8c1.182-2.593 2.03-5.397 2.546-8.409v-7.99c0-2.055.188-3.83.563-5.328.552-2.224 1.216-3.903 1.991-5.036 1.03-1.503 2.703-2.658 5.018-3.464 1.528-.534 2.491-.957 2.891-1.273.994-.775 1.525-1.754 1.591-2.936.11-1.866 1.085-2.964 2.927-3.29a33.076 33.076 0 018.646-.374c2.927.255 4.712-.993 5.354-3.745.6-2.606-.26-4.494-2.581-5.664-2.303-1.157-3.734-3.036-4.291-5.636a46.798 46.798 0 00-4.182-11.736c-.491-.958-.503-1.921-.037-2.891 1.625-3.352 1.858-6.816.7-10.391-.684-2.103-.651-3.758.1-4.964l2.619-4.2c1.018-1.824 1.206-3.87.563-6.136-.352-1.243-.606-2.873-.763-4.891a1.437 1.437 0 00-.319-.81c-1.818-2.327-2.679-4.927-2.581-7.8.042-1.193.424-2.384 1.145-3.572a30.18 30.18 0 012.191-3.145c1.26-1.582 2.055-2.955 2.382-4.119.479-1.709.712-3.46.7-5.254-.007-1.43.23-2.507.709-3.227.69-1.049 1.582-1.816 2.673-2.3 4.588-2.019 8.37-4.737 11.345-8.155.812-.934 1.336-1.882 1.573-2.845a9.07 9.07 0 00.19-3.355c-.254-1.945-.687-3.5-1.3-4.664-.993-1.902-2.908-2.475-5.745-1.718-.077.021-.155.035-.235.04a1.22 1.22 0 01-1.283-1.367c.352-2.77-.875-4.61-3.682-5.518a56.008 56.008 0 00-8.482-2.028c-1.224-.193-1.9-.936-2.027-2.227l-.354-3.7c-.121-1.266-.837-1.997-2.146-2.19a42.314 42.314 0 01-6.218-1.392c-1.88-.581-2.745-1.802-2.6-3.663.448-5.703-.255-11.016-2.11-15.937a.887.887 0 01.1-.8c1.837-2.697 2.222-5.545 1.155-8.545-.909-2.582-2.702-3.994-5.381-4.236-.091-.007-.912-.146-2.464-.419-1.188-.206-2.17.21-2.945 1.246-.389.509-.758.706-1.11.59a.331.331 0 01-.031-.012c-.185-.09-.245-.354-.133-.588l.019-.036c2.855-4.97 3.78-10.309 2.773-16.018-.443-2.527-1.991-4.124-4.646-4.79-1.902-.48-3.566-1.555-4.99-3.228a1.369 1.369 0 00-.737-.464c-1.757-.406-3.612-.236-5.564.51a.292.292 0 01-.39-.3c.32-3.734.457-7.119.409-10.155-.043-2.491 1.245-4.03 3.863-4.618 1.237-.28 1.73-1.04 1.482-2.282-.23-1.146.164-2.021 1.182-2.627 2.752-1.643 5.363-1.589 7.836.163l1.473 1.046c2.06 1.236 4.236 1.824 6.527 1.763 2.085-.054 4.085-.8 6-2.236 2.648-1.982 4.712-4.58 6.191-7.79a.978.978 0 01.655-.537c2.763-.685 4.979-1.91 6.645-3.673 1.406-1.497 2.043-3.28 1.91-5.345-.104-1.607-.274-2.943-.51-4.01-.309-1.43.08-2.636 1.164-3.618a50.213 50.213 0 004.582-4.69c1.89-2.23 3.097-3.858 3.618-4.882.957-1.861 1.318-3.937 1.082-6.228-.2-1.879.524-3.597 2.172-5.154 1.91-1.8 3.448-3.752 4.618-5.855a.537.537 0 01.827-.136c2.189 1.939 4.476 3.59 6.864 4.954 3.03 1.74 5.68 2.494 7.946 2.264 3.479-.352 5.682-2.682 6.609-6.99.43-1.983 1.615-2.68 3.554-2.092a81.046 81.046 0 016.119 2.118c2.788 1.091 6.027.998 9.718-.281 3.309-1.152 6.379-3.198 9.209-6.137 2.715-2.824 4.382-4.393 5-4.709 2.509-1.273 5.309-1.066 8.4.618zM308.8 396.524a51.73 51.73 0 005.345.209c1.412-.012 2.594.145 3.545.472 1.146.394 2.252.889 3.319 1.482 2.672.625 5.381.88 8.127.764 7.2-.291 14.16-.31 20.882-.055 1.993.073 2.327.855 1 2.346-1.782 2.012-1.94 4.163-.473 6.454a10.542 10.542 0 003.336 3.31c2.728 1.709 5.41 1.302 8.046-1.219.982-.933 2.018-1.002 3.109-.209 1.006.734 2.46 1.385 4.363 1.955 1.982.593 3.428-.03 4.337-1.873.575-1.157 1.615-2.688 3.118-4.59 1.32-1.68 3.066-2.425 5.236-2.237 1.473.133 2.925.388 4.355.763.024.012.657.116 1.9.31 1.648.26 3.09 1.551 4.327 3.872.48.897.555 1.83.227 2.8-.575 1.691-.872 3.585-.89 5.682-.019 2.26.415 4.07 1.3 5.427 1.37 2.103 3.433 2.967 6.19 2.591 1.485-.206 2.619-.703 3.4-1.49.964-.97 1.394-2.258 1.291-3.864-.181-2.958 1.146-4.389 3.982-4.291a1.3 1.3 0 01.8.318c.988.873 2.01 2.139 3.064 3.8 1.327 2.09 3.157 3.03 5.49 2.818 1.989-.182 3.225-.23 3.71-.145 3.412.6 6.379 2.16 8.9 4.681 1.43 1.425 3.075 2.161 4.936 2.21.327.011 1.98-.089 4.955-.3 1.679-.121 3.318-.482 4.918-1.082 1.03-.394 3.015-.961 5.954-1.7 3.582-.91 6.294-.143 8.137 2.3 1.084 1.436 1.743 2.239 1.973 2.409a6.134 6.134 0 002.981 1.227c.321.043 1.482.07 3.482.082 1.394.006 2.555-.088 3.482-.282 2.612-.557 3.37.276 2.273 2.5-1.03 2.08-1.282 4.112-.755 6.1.077.277.246.53.482.718a17.392 17.392 0 005.918 3.11.95.95 0 01.61.536c1.708 3.982 2.242 8.139 1.6 12.472-.43 2.94.515 5.225 2.836 6.855 1.054.74 2.17 2.04 3.345 3.9 1.364 2.164 2.882 3.906 4.555 5.227.557.443.497.78-.182 1.01-2.988.993-4.418 2.818-4.291 5.472.06 1.23.175 2.18.345 2.846.273 1.09.937 1.87 1.991 2.336.012 0 .721.148 2.128.445 1.733.358 3.036 1.549 3.909 3.573.66 1.521 1.815 2.37 3.463 2.546 4.11.43 8.207 1.833 12.291 4.209.266.158.382.46.264.681a.938.938 0 01-.31.346c-.37.248-.593.43-.672.545-1.073 1.655-1.688 3.407-1.845 5.255-.249 2.934-.325 6.266-.228 10 .08 3.043-1.179 5.324-3.772 6.845-1.491.867-2.655 1.412-3.491 1.637-1.412.37-2.761.024-4.046-1.037-3.679-3.054-7.788-4.4-12.327-4.036-2.491.2-5.485.845-8.982 1.936-1.297.407-2.879 1.207-4.745 2.4-1.867 1.194-4.261 2.476-7.182 3.846-2.037.957-4.273 2.566-6.71 4.827-.854.788-1.542 1.64-2.063 2.555-.739 1.29-1.148 2.315-1.227 3.072-.448 4.34-2.134 7.428-5.055 9.264-1.97 1.23-3.512 2.406-4.627 3.527-.534.534-1.16 1.537-1.882 3.01a30.814 30.814 0 01-1.79 3.118 11.629 11.629 0 00-1.746 4.736c-.267 1.86-.337 3.512-.21 4.954.23 2.643 1.583 4.555 4.055 5.737 1.237.588 1.988.993 2.255 1.218 1.545 1.29.984 2.315-1.682 3.073-3.727 1.054-6.373 3.036-7.936 5.945-.007.012-.489 1.546-1.446 4.6a11.657 11.657 0 01-2.645 4.555c-1.521 1.624-3.473 2.5-5.855 2.627-2.952.152-6.239-.425-9.863-1.727a1.477 1.477 0 00-1.728.572c-1.382 2.11-1.82 4.621-1.318 7.537.346 1.975 1.43 3.336 3.255 4.082 1.715.709 3 1.6 3.854 2.672.401.504.546 1.167.391 1.791-1.127 4.516-3.075 7.867-5.845 10.055a22.8 22.8 0 00-3.655 3.582c-.4.49-.603.418-.609-.219-.048-2.879 0-5.697.145-8.454.225-4.243.228-7.048.01-8.418-1.128-7.103-5.512-11.712-13.155-13.828a77.725 77.725 0 00-15.418-2.645 27.937 27.937 0 01-8.037-2.845c-4.254-2.285-5.484-5.358-3.69-9.219 1.242-2.66 1.897-4.118 1.963-4.372 1.594-6.08-.284-11.149-5.636-15.21-3.303-2.509-6.797-4.357-10.482-5.545a.689.689 0 01-.464-.59c-.624-6.389-3.79-11.092-9.5-14.11-5.32-2.818-8.43-4.63-9.327-5.436-5.448-4.94-7.566-10.837-6.354-17.691.163-.921.933-3.24 2.309-6.955.89-2.406 1.539-4.779 1.945-7.118.546-3.139-.003-6.152-1.645-9.036a26.795 26.795 0 01-4.719-6.873 156.719 156.719 0 00-8.845-32.355c-.952-2.418-2.94-6.811-5.964-13.181a389.898 389.898 0 01-5.972-13.182 29.48 29.48 0 01-1.719-5.373c-1.975-6.352-1.463-12.666 1.537-18.945a1.772 1.772 0 011.763-1z" fill="#fff"/><path d="M529.9 464.296c1.909 1.982 3.49 3.067 4.745 3.255 2.46.357 3.879 1.536 4.254 3.536.116.612.173 2.234.173 4.864 0 2.8-.688 5.43-2.063 7.89-.758 1.364-1.182 2.383-1.273 3.055-.297 2.207.775 3.049 3.218 2.528.436-.091.857-.291 1.264-.6.375-.291.748-.582 1.118-.873.235-.188.522-.288.809-.282 5.375.11 7.348 2.88 5.918 8.31a.62.62 0 01-.564.472c-1.83.084-3.306-.9-4.427-2.955-.466-.86-1.175-1.409-2.127-1.645a80.903 80.903 0 01-4.627-1.336c-.964-.303-1.825-.346-2.582-.128a9.27 9.27 0 00-2.455 1.146c-1.624 1.066-2.548 1.639-2.772 1.718a8.36 8.36 0 01-3.291.445 17.344 17.344 0 00-7.619 1.237c-1.309.533-2.6.366-3.872-.5a98.378 98.378 0 00-1.664-1.137c-3.515-1.945-7.854-3.463-13.018-4.554a1.86 1.86 0 01-1.318-1.055c-1.316-2.927-3.53-4.648-6.646-5.163-.552-.091-.933-.252-1.145-.482-.321-.334-.482-.761-.482-1.282.006-.964.003-1.552-.01-1.764-.054-1.03.355-1.815 1.228-2.354 1.182-.734 2.527-1.37 4.037-1.91.697-.242 1.857-.366 3.481-.372 1.467 0 2.794-.37 3.982-1.11.491-.308 1.376-1.29 2.655-2.945 1.582-2.048 3.7-3.402 6.354-4.063a88.042 88.042 0 0013.182-1.137 10.106 10.106 0 014.773-1.145c.28 0 .555.122.763.336z" fill="#fff"/><path d="M536.118 492.696l3.818 1.064c.694.19 1.234.595 1.463 1.1.782 1.727 2.08 2.873 3.891 3.436.625.19 1.13.66 1.364 1.273 1.945 5.11 2.694 10.136 2.245 15.082-.211 2.37.446 4.175 1.973 5.418.757.618 2.143 1.155 4.155 1.61 1.266.29 2.727.626 4.382 1.008.463.111.779.544.736 1.01-.194 2.278.184 4.015 1.136 5.208.618.776 2.061 1.434 4.328 1.973 2.357.557 4.77 1.185 7.236 1.882a1.7 1.7 0 011.218 1.827c-.424 3.716 1.588 5.307 6.036 4.773 1.103-.127 1.803.343 2.1 1.41.298 1.042.516 2.2.655 3.472.145 1.315-.027 2.452-.518 3.409-.667 1.279-1.607 2.373-2.818 3.282a67.439 67.439 0 01-8.273 5.318c-1.655.903-2.773 1.684-3.355 2.345-1.048 1.212-1.542 2.549-1.481 4.01.102 2.388-.18 4.463-.846 6.227-.2.52-1.209 1.966-3.027 4.336-3.018 3.934-3.427 8.17-1.227 12.71 1.054 2.181 1.679 3.717 1.872 4.608.358 1.63.585 3.285.682 4.964.061 1.182-.175 2.26-.709 3.236a18.05 18.05 0 01-1.918 2.837c-1.37 2.939-1.503 5.975-.4 9.109.745 2.12.615 4.124-.391 6.009-.752 1.4-1.064 2.806-.936 4.218.06.72.52 2.027 1.381 3.918 1.467 3.237 2.776 6.982 3.928 11.237.436 1.606 1.439 3.027 3.009 4.263a7.074 7.074 0 012.2 1.264c.666.57 1.012 1.279 1.036 2.127.073 2-1.1 2.948-3.518 2.846-1.97-.085-3.94-.176-5.91-.273-4.017.139-6.775 2.339-8.272 6.6a2.129 2.129 0 01-1.518 1.354c-4.266 1.03-7.152 3.6-8.655 7.71-1.345 3.684-1.863 7.327-1.554 10.927.443 5.17-.527 9.909-2.91 14.218a.757.757 0 01-.672.382c-5.92-.03-11.457 1.388-16.61 4.254-.275.152-.548.188-.68.091-.146-.109-.04-.324.317-.645 4.473-3.988 7.13-8.707 7.973-14.155.812-5.279-.02-10-2.5-14.163-2.703-4.558-7.066-7.446-13.09-8.664-2.74-.552-3.653-2.28-2.737-5.182.266-.854.554-2.92.863-6.2.261-2.752.173-4.812-.263-6.182-.934-2.927-3.034-4.893-6.3-5.9a.993.993 0 00-.818.128c-4.212 2.739-7.967 2.066-11.264-2.019-3.406-4.211-7.4-5.484-11.982-3.818-1.364.497-3.318 1.74-5.864 3.727a144.226 144.226 0 01-5.609 4.173.972.972 0 01-1.318-.209 572.674 572.674 0 01-2.282-3.027c-.963-1.297-1.784-2.252-2.463-2.864-3.958-3.557-7.912-3.66-11.864-.309-.952.812-1.93 2.027-2.936 3.646a440.685 440.685 0 00-2.464 4.036c-.654 1.073-1.575 1.409-2.764 1.009-5.788-1.94-11.172-.927-16.154 3.036a60.52 60.52 0 01-5.327 3.782c-1.267 1.11-2.607 1.576-4.019 1.4-1.206-.157-2.275-.854-3.209-2.09-1.333-1.776-2.275-3.989-2.827-6.637-.69-3.297-1.109-6.134-1.254-8.51-.103-1.636.242-3.106 1.036-4.408a18.925 18.925 0 014.245-4.882c3.164-2.594 5.321-6.276 6.473-11.046.243-1.018.073-1.966-.509-2.845-1.206-1.812-2.98-3.127-5.318-3.945-.957-.334-1.507-1.003-1.646-2.01-.272-2.018-.2-3.848.219-5.49.003-.016.009-.032.013-.048a.65.65 0 01.82-.404l.04.015c3.357 1.418 6.763 2.003 10.217 1.755 2.498-.182 4.48-.998 5.946-2.446 2.115-2.084 3.597-4.702 4.445-7.854.534-1.988 1.01-3.273 1.428-3.855.836-1.152 1.963-2.018 3.381-2.6a44.25 44.25 0 004.791-2.327c1.558-.873 2.152-2.012 1.782-3.418-.243-.934-.92-1.794-2.036-2.582a16.108 16.108 0 00-3.01-1.691 2.677 2.677 0 01-1.581-1.99c-.473-2.692-.318-5.47.464-8.337a61.613 61.613 0 003.045-5.637c.527-1.109 1.2-1.966 2.018-2.572a51.7 51.7 0 012.773-1.91c3.424-2.206 5.545-5.402 6.364-9.59.454-2.321 1.042-3.916 1.763-4.782 1.407-1.691 3.425-3.31 6.055-4.855.188-.109 1.793-.89 4.818-2.345 1.739-.837 3.266-1.77 4.582-2.8 1.527-1.2 3.118-1.882 4.772-2.046a39.447 39.447 0 018.646-1.472c2.448-.14 4.69.46 6.727 1.8a66.536 66.536 0 004.227 2.572c1.394.903 2.776 1.158 4.146.764.606-.175 1.797-.734 3.573-1.673 2.72-1.43 4.415-3.59 5.081-6.482.049-.2.11-2.518.182-6.954.061-3.612.77-7.218 2.128-10.818 0-.004.002-.008.003-.01a.627.627 0 01.813-.34l.01.004c1.71.716 3.4.78 5.074.191 1.448-.509 2.493-.79 3.136-.845 1.8-.14 2.9-.188 3.3-.146 2.848.316 5.33-.536 7.445-2.554.83-.794 2.04-.973 3.628-.537z" fill="#fff"/><path d="M355.563 337.778a33.55 33.55 0 013.81 4.418c1.181 1.649 2.845 2.328 4.99 2.037 4.285-.588 8.38-.243 12.282 1.036 2.339.764 5.473 2.488 9.4 5.173a385.82 385.82 0 018.827 6.2c3.648 1.745 7.18 1.524 10.591-.664a750.972 750.972 0 0118.482-11.463c11.66-7.007 22.257-6.416 31.79 1.772 1.262 1.091 2.792 2.703 4.592 4.837 2.563 3.042 3.966 4.766 4.209 5.172 1.788 3.055 4.366 4.758 7.736 5.11 1.103.109 1.985-.089 2.646-.591.811-.63 1.251-1.528 1.318-2.691l.082-1.355c.181-1.4.418-2.794.709-4.182.842-4.024 2.89-6.36 6.145-7.009 2.316-.46 4.976.061 7.982 1.564 3.557 1.775 6.634 4.245 9.227 7.409 2.673 3.26 4.74 6.039 6.2 8.336 1.958 3.091 3.9 5.876 5.828 8.355 2.618 3.375 4.988 5.615 7.109 6.718 3.054 1.588 6.475 2.018 10.263 1.29 4.03-.775 8.058-1.55 12.082-2.326 7.727-2.049 14.103-.398 19.127 4.954.455.485 1.243 1.507 2.364 3.064a41.216 41.216 0 002.41 3.054.567.567 0 00.955-.182c.969-2.654 2.478-4.909 4.526-6.763 1.194-1.085 2.454-1.864 3.782-2.336 1.575-.558 3.097-.7 4.563-.428 3.285.618 6.498 2.255 9.637 4.91a69.125 69.125 0 009.777 6.921.366.366 0 00.495-.222c2.698-8.23 8.191-10.751 16.482-7.563.007 0 .548.239 1.628.718 2.46 1.097 4.845 1.157 7.154.182 2.806-1.194 5.361-3.194 7.664-6 2.563-3.116 5.654-4.994 9.272-5.637 3.067-.545 6.437-.072 10.11 1.419 7.466 3.042 12.12 8.62 13.963 16.736.073.32.327 2.848.764 7.582.309 3.315 1.118 6.342 2.427 9.082 2.097 4.37 5.243 8.42 9.436 12.154a224.158 224.158 0 0011.91 9.9 130.068 130.068 0 0115.036 13.6c4.339 4.588 7.506 9.725 9.5 15.41a1.973 1.973 0 002.073 1.308c2.381-.26 4.6-.079 6.654.546 2.243.679 3.937 1.948 5.082 3.809 2.085 3.393 1.32 6.76-2.29 10.1-2.11 1.952-3.628 3.16-4.555 3.627-4.2 2.11-5.507 5.434-3.919 9.973 1.31 3.739 2.88 6.93 4.71 9.573 3.345 4.818 5.211 9.99 5.6 15.518.016.27.194.51.454.609 4.2 1.636 7.18 4.357 8.936 8.163 1.207 2.619 1.637 5.2 1.291 7.746-.382 2.775-1.652 5.23-3.809 7.364a105.091 105.091 0 01-4.582 4.281c-1.672 1.473-1.82 3.294-.445 5.464 4.594 7.248 2.852 12.248-5.227 15a11.478 11.478 0 00-5.228 1.21 1.07 1.07 0 00-.536.654 54.919 54.919 0 00-2.41 16.09 66.837 66.837 0 01-2.263 17.219c-1 3.763-2.539 7.097-4.618 10-5.818 8.127-13.748 10.927-23.79 8.4-3.644-.916-6.57-.088-8.783 2.482a751.158 751.158 0 01-2.081 2.4l-3.073 3.081c-4.576 3.346-8.721 3.394-12.437.146l-3.354-4.073c-2.685-3.266-6.055-4.77-10.11-4.509-3.09.194-5.62 1.352-7.59 3.473-2.152 2.32-3.127 5.197-2.927 8.627.079 1.43.545 3.048 1.4 4.855a93.207 93.207 0 002.29 4.545c2.007 5.885 1.249 11.075-2.272 15.573-6.121 7.812-14.903 18.193-26.346 31.145-1.49 1.685-2.633 2.818-3.427 3.4-3.43 2.491-6.897 2.51-10.4.055-1.03-.861-2.09-1.68-3.182-2.455-1.206-.854-2.424-1.243-3.654-1.163-2.188.139-4.134.909-5.837 2.309-2.018 1.666-4.67 4.09-7.954 7.272-4.655 4.521-10.657 6.673-18.01 6.455a84.135 84.135 0 01-9.945-.882 107.553 107.553 0 00-11.418-1.082c-1.77-.072-4.024.325-6.764 1.191a100.967 100.967 0 01-5 2.155c-2.011.793-3.754 1.275-5.227 1.445-6.715.757-10.788-2.333-12.218-9.273a1.276 1.276 0 01.682-1.4c4.309-2.12 7.639-4.933 9.99-8.436 1.934-2.884 2.87-5.779 2.81-8.682-.08-3.606-1.725-6.497-4.937-8.672-.836-.57-2.024-1.058-3.563-1.464-1.48-.388-2.721-.782-3.727-1.182-2.407-.945-4.198-2.47-5.373-4.573-.927-1.642-1.352-3.82-1.273-6.536.08-2.818.464-5.76 1.155-8.827a.869.869 0 00-.945-1.045c-6.77.847-12.228-1.44-16.374-6.864-.842-1.103-1.836-1.261-2.981-.473a86.356 86.356 0 00-5.028 3.764c-2.302 1.848-4.024 3.011-5.163 3.49-4.534 1.91-8.558.71-12.073-3.6a47.89 47.89 0 01-2.836-3.863.768.768 0 00-1.282.018 3306.34 3306.34 0 01-2.673 4.264c-1.157 1.842-2.194 3.157-3.109 3.945-3.334 2.866-7.285 3.397-11.855 1.591-1.309-.515-2.56-.4-3.754.345a147.332 147.332 0 00-5.736 3.8c-2.703 1.885-4.655 3.085-5.855 3.6-5.564 2.394-10.394 1.521-14.49-2.618-1.583-1.6-2.907-3.645-3.974-6.136a30.986 30.986 0 01-2.063-7.1c-.812-4.988-1.316-10.191-1.51-15.61-.072-2.042.016-4.666.264-7.872.298-3.97.334-6.597.11-7.882-.51-2.89-2.043-4.918-4.6-6.082-3.57-1.618-7.492-2.554-11.764-2.809a41.196 41.196 0 01-13.328-3.045c-3.581-1.466-6.43-3.455-8.545-5.964-3.48-4.115-4.08-8.802-1.8-14.063 1.12-2.576 1.74-4.119 1.855-4.628.479-2.072-.052-3.815-1.591-5.227-1.63-1.497-3.089-2.539-4.373-3.127-3.697-1.691-8.134-3.134-13.31-4.327a.365.365 0 01-.245-.51l2.491-5.036c.135-.269.168-.57.091-.845-.97-3.461-3.203-5.967-6.7-7.519-2.363-1.048-4.693-2.379-6.99-3.99-2.353-1.649-4.313-3.44-5.883-5.373-5.145-6.327-6.97-13.607-5.472-21.837.236-1.272.952-3.606 2.145-7a78.286 78.286 0 002.11-7.036c.351-1.406.008-2.615-1.028-3.627-3.212-3.146-5.164-6.943-5.855-11.391l-.409-2.664a142.982 142.982 0 00-13.218-38.418c-2.266-4.424-4.539-9.566-6.818-15.427-2.897-7.443-3.56-14.961-1.99-22.555 1.005-4.86 3.29-9.139 6.854-12.836 2.424-2.51 5.09-4.334 8-5.473 3.26-1.279 6.566-1.69 9.918-1.236 4.812.654 7.615-1.316 8.409-5.91 2.09-12.127 5.745-23.484 10.964-34.072 1.181-2.4 2.311-4.043 3.39-4.927 1.812-1.473 3.9-1.958 6.264-1.455 1.643.352 3.276 1.318 4.9 2.9zm9.41 69.955l4.936 2.327a1.379 1.379 0 001.8-.582c1.09-2.024 2.302-3.83 3.636-5.418 1.866-2.218 4.266-3.234 7.2-3.045 1.975.57 3.979 1.011 6.009 1.327 1.503.236 2.67.724 3.5 1.463 1.54 1.364 2.71 3.021 3.51 4.973.105.257.105.557 0 .837a20.51 20.51 0 00-1.355 8.045c.054 1.685.424 2.93 1.109 3.736.97 1.134 2.393 1.543 4.272 1.228 1.867-.316 2.68-1.455 2.437-3.419-.328-2.624.584-4.463 2.736-5.518 1.546-.763 3.07-.89 4.573-.382.854.291 1.752 1.098 2.69 2.419a19.508 19.508 0 003.855 4.045c.221.18.518.256.818.21 5.807-.885 10.616.69 14.428 4.726 1.327 1.412 2.784 2.076 4.372 1.991 1.989-.2 3.976-.388 5.964-.563 1.225-.103 2.594-.48 4.11-1.128a20.25 20.25 0 018.708-1.654c1.691.048 3.04.418 4.046 1.109 1.09.745 2.082 1.82 2.972 3.227.716 1.116 1.737 1.712 3.064 1.791 1.957.11 4.176.103 6.655-.018.048-.006.457-.045 1.227-.118 2.564-.243 3.706.979 3.427 3.663a28.305 28.305 0 00-1.463 5.291c-.051.285.04.575.245.773a10.451 10.451 0 005.09 2.818c.308.071.573.221.755.428 1.376 1.551 2.219 3.388 2.528 5.509.448 3.011.548 6.6.3 10.763-.061 1.03.315 1.864 1.127 2.5 2.388 1.873 4.552 4.367 6.49 7.482 1.492 2.412 3.91 3.606 7.255 3.582 2.176-.012 3.721-.743 4.637-2.191 1.29-2.055 2.952-3.61 4.982-4.664 1.284-.666 3.279-1.057 5.981-1.172 2.382-.098 4.761-.3 7.137-.61a1.668 1.668 0 001.427-1.39c.54-3.425.88-6.991 1.018-10.7.055-1.6.294-2.734.718-3.4.685-1.08 1.752-1.749 3.2-2.01a1.29 1.29 0 001.055-1.318c-.073-1.824.794-3.202 2.6-4.136 3.612-1.873 7.257-1.436 10.936 1.31 2.498 1.86 5.103 2.28 7.819 1.263 1.72-.643 3.363-1.898 4.927-3.764 1.236-1.473 2.42-3.218 3.554-5.236a2.674 2.674 0 011.91-1.318c3.454-.552 5.733-2.598 6.836-6.137.06-.193.06-.484 0-.873l-.773-4.954c-.2-1.248.303-2.421 1.51-3.518a47.586 47.586 0 004.717-4.937c1.825-2.206 2.912-3.633 3.264-4.281.885-1.63 1.21-3.467.973-5.51-.237-2.054.339-3.824 1.727-5.309a68.382 68.382 0 005.255-6.354 1.205 1.205 0 00-.137-1.573c-1.224-1.2-2.609-2.045-4.154-2.536-1.28-.407-2.276-.04-2.991 1.1-1.818 2.884-2.928 5.879-3.328 8.982a.901.901 0 01-.69.763c-5.721 1.267-10.064-.254-13.028-4.563a40.117 40.117 0 01-2.718-3.828c-2.443-3.909-5.984-5.445-10.627-4.609a592.856 592.856 0 00-12.61 2.427c-11.587 2.37-20.684-1.142-27.29-10.536a7165.347 7165.347 0 00-11.073-15.727c-2.188-2.764-4.988-5.037-8.4-6.818a.873.873 0 00-1.273.664 94.388 94.388 0 01-.79 5.5c-.619 3.527-2.234 6.13-4.846 7.808-2.23 1.43-4.985 1.994-8.264 1.691-3.848-.363-7.193-1.82-10.036-4.372-.334-.298-2.188-2.628-5.564-6.991-2.442-3.152-5.066-5.721-7.872-7.71-2.916-2.06-6.11-2.939-9.582-2.636-2.303.2-5.27 1.252-8.9 3.155-4.546 2.388-9.218 5.284-14.018 8.69-2.346 1.662-5.398 3.276-9.155 4.846-6.152 2.576-11.897 1.918-17.236-1.973a345.29 345.29 0 00-5.491-3.909c-3.673-2.563-5.518-3.852-5.537-3.863-3.757-2.255-7.781-3.103-12.072-2.546-5.788.752-10.388-1.163-13.8-5.745-.71-.952-1.434-1.9-2.173-2.846a.493.493 0 00-.827.082 116.826 116.826 0 00-8.673 23.636 1425 1425 0 00-1.41 7.173c-.6 3.061-1.41 5.552-2.435 7.473-2.673 5.024-6.84 7.524-12.5 7.5-3.412-.012-5.976.136-7.691.445-2.691.485-4.864 1.773-6.519 3.864a.237.237 0 00-.025.04.197.197 0 00.087.264c.015.006.031.011.048.014 1.672.352 3.115.4 4.327.146 1.303-.28 3.063.157 5.282 1.309 2.66 1.375 6.13 1.972 10.409 1.79 4.236-.188 8.475-.393 12.718-.618a40.633 40.633 0 016.818.191c1.8.2 3.04.698 3.718 1.491 1.073 1.255.858 2.898-.645 4.928-.716.963-.837 1.997-.364 3.1.455 1.072 1.425 2.115 2.91 3.127 1.817 1.236 3.63.875 5.436-1.082 1.32-1.43 2.839-1.74 4.554-.927zm349.626 115.3c.976-2.291 2.319-4.876 4.028-7.755 1.315-2.224 1.47-4.624.463-7.2-1.327-3.418-3-6.66-5.018-9.727-3.084-4.685-4.806-9.252-5.163-13.7-.4-4.94 1.233-8.985 4.9-12.136 2.018-1.74 3.915-3.17 5.69-4.291 1.321-.837 1.203-1.194-.354-1.073-6.121.46-10.227-1.861-12.318-6.964-1-2.448-1.507-3.684-1.518-3.709-2.77-5.424-6.552-10.066-11.346-13.927a117.049 117.049 0 00-8.173-6.8 186.024 186.024 0 01-14.918-12.6c-7.497-7.03-11.72-15.543-12.673-25.536-.43-4.582-.793-7.282-1.09-8.1-1.267-3.534-3.755-6.31-7.464-8.328-3.091-1.684-5.891-1.89-8.4-.618-.618.316-2.285 1.885-5 4.71-2.83 2.938-5.9 4.984-9.21 6.136-3.69 1.279-6.93 1.372-9.717.281a81.046 81.046 0 00-6.119-2.118c-1.939-.588-3.124.11-3.554 2.091-.927 4.31-3.13 6.64-6.61 6.991-2.266.23-4.915-.525-7.945-2.264-2.388-1.363-4.675-3.015-6.863-4.954a.537.537 0 00-.827.136c-1.17 2.103-2.71 4.055-4.619 5.855-1.648 1.557-2.372 3.275-2.172 5.154.236 2.291-.125 4.367-1.082 6.228-.521 1.024-1.728 2.651-3.618 4.881a50.213 50.213 0 01-4.582 4.691c-1.085.982-1.473 2.188-1.164 3.618.236 1.067.406 2.403.51 4.01.133 2.066-.504 3.848-1.91 5.345-1.666 1.764-3.882 2.988-6.645 3.673a.978.978 0 00-.655.536c-1.479 3.212-3.543 5.81-6.19 7.791-1.916 1.436-3.916 2.182-6 2.236-2.292.061-4.467-.527-6.528-1.763l-1.473-1.046c-2.473-1.752-5.084-1.806-7.836-.163-1.018.606-1.412 1.481-1.182 2.627.248 1.243-.245 2.003-1.482 2.282-2.618.588-3.906 2.127-3.863 4.618.048 3.036-.089 6.42-.41 10.154a.292.292 0 00.39.3c1.953-.745 3.808-.915 5.565-.509.27.06.53.222.736.464 1.425 1.673 3.089 2.748 4.991 3.227 2.655.667 4.203 2.264 4.646 4.791 1.006 5.71.082 11.048-2.773 16.018l-.02.036c-.11.234-.05.499.134.588.01.005.02.01.031.013.352.115.721-.082 1.11-.591.775-1.037 1.757-1.452 2.945-1.246 1.552.273 2.373.412 2.464.419 2.679.242 4.472 1.654 5.381 4.236 1.067 3 .682 5.848-1.154 8.545a.887.887 0 00-.1.8c1.854 4.921 2.557 10.234 2.109 15.937-.145 1.86.72 3.082 2.6 3.663a42.314 42.314 0 006.218 1.391c1.31.194 2.025.925 2.146 2.191l.354 3.7c.127 1.291.803 2.034 2.027 2.227 2.903.461 5.73 1.137 8.482 2.028 2.807.909 4.034 2.748 3.682 5.518a1.22 1.22 0 001.283 1.367c.08-.005.158-.019.235-.04 2.837-.757 4.752-.184 5.746 1.718.612 1.164 1.045 2.719 1.3 4.664a9.07 9.07 0 01-.191 3.355c-.237.963-.761 1.911-1.573 2.845-2.975 3.418-6.757 6.136-11.345 8.155-1.091.484-1.982 1.251-2.673 2.3-.48.72-.716 1.797-.71 3.227a18.91 18.91 0 01-.7 5.254c-.326 1.164-1.12 2.537-2.381 4.119a30.18 30.18 0 00-2.19 3.145c-.722 1.188-1.104 2.38-1.146 3.573-.098 2.872.763 5.472 2.581 7.8.19.236.301.519.319.809.157 2.018.411 3.648.763 4.89.643 2.267.455 4.313-.563 6.137l-2.619 4.2c-.751 1.206-.784 2.861-.1 4.964 1.158 3.575.925 7.039-.7 10.39-.466.97-.454 1.934.037 2.892a46.798 46.798 0 014.182 11.736c.557 2.6 1.988 4.479 4.29 5.636 2.321 1.17 3.182 3.058 2.582 5.664-.642 2.752-2.427 4-5.354 3.745a33.076 33.076 0 00-8.646.373c-1.842.327-2.818 1.425-2.927 3.291-.066 1.182-.597 2.16-1.59 2.936-.4.316-1.364.74-2.892 1.273-2.315.806-3.988 1.961-5.018 3.464-.775 1.133-1.439 2.812-1.99 5.036-.376 1.497-.564 3.273-.564 5.327v7.991c-.516 3.012-1.364 5.816-2.546 8.41a.576.576 0 00.436.8c5.558.83 10.882 1.472 15.973 1.927 3.491.315 7.11-.612 10.855-2.782 1.024-.594 3.139-2.497 6.345-5.71a30.012 30.012 0 017.6-5.545c7.043-3.612 13.294-2.633 18.755 2.937a.818.818 0 001.172-.015l.019-.022a1617.649 1617.649 0 0027.018-31.418c1.06-1.266 1.948-3.148 2.663-5.645.083-.29.077-.595-.018-.873-.497-1.552-1.436-3.603-2.818-6.155-2.582-4.77-2.952-9.918-1.109-15.445 1.715-5.127 4.68-8.84 8.89-11.136 3.97-2.164 8.337-2.852 13.1-2.064 5.916.982 10.685 4.29 14.31 9.927.015.023.03.046.046.067a1.255 1.255 0 001.809.215c.848-.71 1.742-1.54 2.681-2.49.012-.013.725-.828 2.137-2.446 1.582-1.807 3.439-3.189 5.572-4.146 1.976-.879 4.355-1.243 7.137-1.09a37.75 37.75 0 017.245 1.108c3.243.31 5.648-.163 7.218-1.418 5.812-4.666 8.967-10.782 9.464-18.345.352-5.461.712-10.918 1.082-16.373.37-5.49 1.284-9.564 2.745-12.218 1.758-3.182 5.267-5.125 10.528-5.827a1.36 1.36 0 001.055-1.91c-.267-.57-.662-1.351-1.183-2.345-.497-.945-.839-1.752-1.027-2.418-1.303-4.667-.034-8.607 3.81-11.818 1.206-1.007 2.884-2.676 5.036-5.01.207-.219.34-.491.381-.781.589-4.007-1.015-6.598-4.809-7.773a1.51 1.51 0 00-.872-.01l-9.755 2.874c-.29.084-.375-.012-.255-.291zM511.427 496.35a.938.938 0 00.309-.346c.118-.22.002-.523-.264-.681-4.084-2.376-8.182-3.78-12.29-4.21-1.649-.175-2.803-1.024-3.464-2.545-.873-2.024-2.176-3.215-3.91-3.573a232.128 232.128 0 00-2.127-.445c-1.054-.466-1.718-1.246-1.99-2.336-.17-.667-.285-1.616-.346-2.846-.127-2.654 1.303-4.479 4.29-5.473.68-.23.74-.566.183-1.009-1.673-1.32-3.191-3.063-4.555-5.227-1.175-1.86-2.29-3.16-3.345-3.9-2.321-1.63-3.267-3.915-2.837-6.855.643-4.333.11-8.49-1.6-12.472a.95.95 0 00-.609-.537 17.392 17.392 0 01-5.918-3.109 1.404 1.404 0 01-.482-.718c-.527-1.988-.275-4.02.755-6.1 1.097-2.224.339-3.057-2.273-2.5-.927.194-2.088.288-3.482.282-2-.012-3.16-.04-3.482-.082a6.134 6.134 0 01-2.981-1.227c-.23-.17-.889-.973-1.973-2.41-1.843-2.442-4.555-3.208-8.137-2.3-2.939.74-4.924 1.307-5.954 1.7-1.6.6-3.24.962-4.918 1.083-2.976.211-4.628.311-4.955.3-1.86-.049-3.506-.785-4.936-2.21-2.521-2.52-5.488-4.081-8.9-4.681-.485-.085-1.721-.037-3.71.145-2.333.212-4.163-.727-5.49-2.818-1.055-1.661-2.076-2.927-3.064-3.8a1.3 1.3 0 00-.8-.318c-2.836-.098-4.163 1.333-3.982 4.29.103 1.607-.327 2.894-1.29 3.864-.782.788-1.916 1.285-3.4 1.491-2.758.376-4.821-.488-6.191-2.59-.885-1.358-1.319-3.167-1.3-5.428.018-2.097.315-3.99.89-5.682.328-.97.252-1.903-.227-2.8-1.236-2.32-2.679-3.612-4.327-3.873-1.243-.193-1.876-.297-1.9-.309a26.577 26.577 0 00-4.355-.763c-2.17-.188-3.915.557-5.236 2.236-1.503 1.903-2.543 3.434-3.118 4.591-.91 1.843-2.355 2.466-4.337 1.873-1.902-.57-3.357-1.221-4.363-1.955-1.091-.793-2.127-.724-3.11.21-2.636 2.52-5.317 2.927-8.045 1.217a10.542 10.542 0 01-3.336-3.309c-1.466-2.29-1.31-4.442.473-6.454 1.327-1.491.993-2.273-1-2.346-6.721-.254-13.682-.236-20.882.055a30.012 30.012 0 01-8.127-.764 20.527 20.527 0 00-3.319-1.482c-.951-.327-2.133-.484-3.545-.472a51.73 51.73 0 01-5.346-.21 1.772 1.772 0 00-1.763 1c-3 6.28-3.512 12.594-1.537 18.946a29.48 29.48 0 001.719 5.373c1.909 4.43 3.9 8.824 5.972 13.182 3.025 6.37 5.012 10.763 5.964 13.181a156.719 156.719 0 018.845 32.355 26.795 26.795 0 004.719 6.873c1.642 2.884 2.19 5.897 1.645 9.036-.406 2.34-1.054 4.712-1.945 7.118-1.376 3.716-2.146 6.034-2.31 6.955-1.211 6.854.907 12.752 6.355 17.69.897.807 4.006 2.619 9.327 5.437 5.71 3.018 8.876 7.721 9.5 14.11.028.275.21.507.464.59 3.685 1.188 7.18 3.036 10.482 5.546 5.352 4.06 7.23 9.13 5.636 15.209-.066.254-.72 1.711-1.963 4.372-1.794 3.861-.564 6.934 3.69 9.219a27.937 27.937 0 008.037 2.845 77.725 77.725 0 0115.418 2.645c7.643 2.116 12.027 6.725 13.155 13.828.218 1.37.215 4.175-.01 8.418a121.807 121.807 0 00-.145 8.454c.006.637.21.71.61.219a22.8 22.8 0 013.654-3.582c2.77-2.188 4.718-5.54 5.845-10.055a2.077 2.077 0 00-.39-1.79c-.855-1.073-2.14-1.964-3.855-2.673-1.825-.746-2.91-2.107-3.255-4.082-.503-2.916-.064-5.427 1.318-7.537a1.477 1.477 0 011.728-.572c3.624 1.302 6.911 1.879 9.863 1.727 2.382-.127 4.334-1.003 5.855-2.627a11.657 11.657 0 002.645-4.555c.957-3.054 1.44-4.588 1.446-4.6 1.563-2.909 4.209-4.89 7.936-5.945 2.666-.758 3.227-1.782 1.682-3.073-.267-.225-1.018-.63-2.255-1.218-2.472-1.182-3.824-3.094-4.054-5.737-.128-1.442-.058-3.093.209-4.954a11.629 11.629 0 011.745-4.736 30.814 30.814 0 001.791-3.119c.721-1.472 1.348-2.475 1.882-3.009 1.115-1.12 2.657-2.297 4.627-3.527 2.921-1.836 4.607-4.925 5.055-9.264.079-.757.488-1.781 1.227-3.072.521-.916 1.21-1.767 2.064-2.555 2.436-2.26 4.672-3.87 6.709-4.827 2.92-1.37 5.315-2.652 7.182-3.846 1.866-1.193 3.448-1.993 4.745-2.4 3.497-1.09 6.491-1.736 8.982-1.936 4.539-.364 8.648.982 12.327 4.036 1.285 1.061 2.634 1.407 4.046 1.037.836-.225 2-.77 3.49-1.637 2.594-1.52 3.852-3.802 3.773-6.845-.097-3.734-.02-7.066.228-10 .157-1.848.772-3.6 1.845-5.255.08-.115.303-.297.673-.545zm-20.346-13.827c3.116.515 5.33 2.236 6.646 5.163a1.86 1.86 0 001.318 1.055c5.164 1.09 9.503 2.609 13.018 4.554.018.007.573.385 1.664 1.137 1.272.866 2.563 1.033 3.872.5a17.344 17.344 0 017.619-1.237 8.36 8.36 0 003.29-.445c.225-.08 1.149-.652 2.773-1.718a9.27 9.27 0 012.455-1.146c.757-.218 1.618-.175 2.582.128 1.739.551 3.281.997 4.627 1.336.952.236 1.66.784 2.127 1.645 1.121 2.055 2.597 3.04 4.427 2.955a.62.62 0 00.564-.473c1.43-5.43-.543-8.2-5.918-8.309a1.256 1.256 0 00-.81.282c-.37.29-.742.582-1.117.873-.407.309-.828.509-1.264.6-2.443.52-3.515-.321-3.218-2.528.09-.672.515-1.69 1.273-3.054a15.92 15.92 0 002.063-7.891c0-2.63-.057-4.252-.173-4.864-.375-2-1.793-3.179-4.254-3.536-1.255-.188-2.836-1.273-4.746-3.255a1.072 1.072 0 00-.763-.336c-1.68-.012-3.27.37-4.773 1.145a88.042 88.042 0 01-13.182 1.137c-2.654.66-4.772 2.015-6.354 4.063-1.28 1.655-2.164 2.637-2.655 2.946-1.188.739-2.515 1.109-3.982 1.109-1.624.006-2.784.13-3.481.373-1.51.539-2.855 1.175-4.037 1.909-.873.539-1.282 1.324-1.227 2.354.012.212.015.8.009 1.764 0 .52.16.948.482 1.282.212.23.593.39 1.145.482zm-48.154 83.536a16.108 16.108 0 013.009 1.69c1.115.79 1.793 1.65 2.036 2.583.37 1.406-.224 2.545-1.782 3.418a44.25 44.25 0 01-4.79 2.327c-1.419.582-2.546 1.448-3.382 2.6-.419.582-.894 1.867-1.428 3.855-.848 3.152-2.33 5.77-4.445 7.854-1.466 1.448-3.448 2.264-5.946 2.446-3.454.248-6.86-.337-10.218-1.755a.648.648 0 00-.873.436c-.418 1.643-.49 3.473-.218 5.491.14 1.007.689 1.676 1.646 2.01 2.339.818 4.112 2.133 5.318 3.945.582.88.752 1.827.51 2.845-1.153 4.77-3.31 8.452-6.474 11.046a18.925 18.925 0 00-4.245 4.882c-.794 1.302-1.14 2.772-1.036 4.409.145 2.375.563 5.212 1.254 8.509.552 2.648 1.494 4.86 2.827 6.636.934 1.237 2.003 1.934 3.21 2.091 1.411.176 2.751-.29 4.018-1.4a60.52 60.52 0 005.327-3.782c4.982-3.963 10.366-4.975 16.154-3.036 1.189.4 2.11.064 2.764-1.01.848-1.405 1.67-2.75 2.464-4.035 1.006-1.619 1.984-2.834 2.936-3.646 3.952-3.352 7.906-3.248 11.864.31.679.611 1.5 1.566 2.463 2.863.758 1.012 1.519 2.02 2.282 3.027.315.408.9.501 1.318.21a144.226 144.226 0 005.61-4.174c2.545-1.988 4.5-3.23 5.863-3.727 4.582-1.666 8.576-.393 11.982 3.818 3.297 4.085 7.052 4.758 11.264 2.019a.993.993 0 01.818-.128c3.266 1.007 5.366 2.973 6.3 5.9.436 1.37.524 3.43.263 6.182-.309 3.28-.597 5.346-.863 6.2-.916 2.903-.003 4.63 2.736 5.182 6.025 1.218 10.388 4.106 13.091 8.664 2.48 4.163 3.312 8.884 2.5 14.163-.843 5.448-3.5 10.167-7.973 14.155-.357.32-.463.536-.318.645.133.097.406.061.682-.09 5.152-2.867 10.688-4.285 16.609-4.255a.757.757 0 00.673-.382c2.382-4.31 3.352-9.048 2.909-14.218-.31-3.6.209-7.243 1.554-10.928 1.503-4.109 4.389-6.679 8.655-7.709a2.129 2.129 0 001.518-1.354c1.497-4.261 4.255-6.461 8.273-6.6 1.97.097 3.939.188 5.909.273 2.418.102 3.59-.846 3.518-2.846-.024-.848-.37-1.557-1.036-2.127a7.074 7.074 0 00-2.2-1.264c-1.57-1.236-2.573-2.657-3.01-4.263-1.151-4.255-2.46-8-3.927-11.237-.86-1.89-1.32-3.197-1.381-3.918-.128-1.412.184-2.818.936-4.218 1.006-1.885 1.136-3.888.39-6.01-1.102-3.133-.97-6.17.4-9.108a18.05 18.05 0 001.919-2.837c.534-.975.77-2.054.71-3.236a31.713 31.713 0 00-.683-4.964c-.193-.89-.818-2.427-1.872-4.609-2.2-4.539-1.791-8.775 1.227-12.709 1.818-2.37 2.827-3.815 3.027-4.336.666-1.764.948-3.84.846-6.228-.061-1.46.433-2.797 1.481-4.009.582-.66 1.7-1.442 3.355-2.345a67.439 67.439 0 008.273-5.318c1.211-.91 2.151-2.003 2.818-3.282.49-.957.663-2.094.518-3.41a21.02 21.02 0 00-.655-3.472c-.297-1.066-.997-1.536-2.1-1.409-4.448.534-6.46-1.057-6.036-4.773a1.7 1.7 0 00-1.218-1.827 172.476 172.476 0 00-7.236-1.882c-2.267-.539-3.71-1.197-4.328-1.973-.952-1.193-1.33-2.93-1.136-5.209a.957.957 0 00-.736-1.009 4546.22 4546.22 0 00-4.382-1.009c-2.012-.454-3.398-.99-4.155-1.609-1.527-1.243-2.184-3.048-1.973-5.418.449-4.946-.3-9.973-2.245-15.082a2.12 2.12 0 00-1.364-1.273c-1.811-.563-3.109-1.709-3.89-3.436-.23-.505-.77-.91-1.464-1.1l-3.818-1.064c-1.589-.436-2.798-.257-3.628.537-2.115 2.018-4.597 2.87-7.445 2.554-.4-.042-1.5.007-3.3.146-.643.054-1.688.336-3.136.845-1.673.588-3.364.525-5.073-.19-.004-.003-.007-.003-.011-.005a.627.627 0 00-.813.34c0 .002-.003.006-.003.01-1.358 3.6-2.067 7.206-2.128 10.818-.072 4.436-.133 6.754-.182 6.954-.666 2.891-2.36 5.052-5.081 6.482-1.776.94-2.967 1.498-3.573 1.673-1.37.394-2.752.14-4.146-.764a66.536 66.536 0 01-4.227-2.572c-2.036-1.34-4.279-1.94-6.727-1.8-2.94.17-5.821.66-8.646 1.472-1.654.164-3.245.846-4.772 2.046-1.316 1.03-2.843 1.963-4.582 2.8-3.025 1.454-4.63 2.236-4.818 2.345-2.63 1.546-4.648 3.164-6.055 4.855-.72.866-1.309 2.46-1.763 4.782-.819 4.188-2.94 7.384-6.364 9.59a51.7 51.7 0 00-2.773 1.91c-.818.606-1.49 1.463-2.018 2.572a61.613 61.613 0 01-3.045 5.637c-.782 2.866-.937 5.645-.464 8.336.159.89.755 1.64 1.582 1.991z" fill="#e51d1d"/></g><g><path d="M485.69 840.578l19.637.137a.48.48 0 01.463.481v52.046c0 .399.325.727.719.727h9.845c.28 0 .51.23.51.51v17.3c0 .328-.272.6-.6.6h-9.855c-.27 0-.491.208-.491.463l-.146 15.5c-.004.26-.204.473-.445.473h-20.11a.475.475 0 01-.472-.464l-.21-15.473a.456.456 0 00-.454-.445l-43.127-.055a.458.458 0 01-.322-.133.458.458 0 01-.133-.321l.055-18.81c0-.288.103-.57.29-.8l43.174-50.945a2.175 2.175 0 011.672-.79zm-1.663 27.137l-22.01 25.781c-.272.316-.2.473.219.473h21.854c.275 0 .5-.225.5-.5l-.054-25.573c0-.515-.17-.575-.51-.181zM345.1 843.06l31.954 85.11a.585.585 0 01-.545.79l-26.973-.155a.634.634 0 01-.61-.436l-4.063-13.318a.867.867 0 00-.818-.627l-29.173.054a.62.62 0 00-.59.437l-4.01 13.145a.929.929 0 01-.873.664l-25.59.245a.808.808 0 01-.764-1.09l31.864-85.064a.679.679 0 01.636-.437h28.582c.432.001.82.274.972.682zm-24.4 52.782l17.7.163a.48.48 0 00.445-.618l-8.973-29.436c-.212-.691-.42-.691-.627 0l-8.891 29.4a.374.374 0 00.345.49z" fill="#2d367c" fill-rule="nonzero"/><path fill="#2d367c" d="M393.909 842.387h26.89v86.582h-26.89z"/><path fill="#e51d1d" d="M536.636 842.378h26.818v86.582h-26.818z"/><path d="M590.554 842.378c14.964 0 29.718.018 44.264.055 8.618.018 15.833 2.482 21.645 7.39 5.861 4.94 9.736 11.149 11.627 18.628 2.261 8.945 2.807 17.888 1.637 26.827-.903 6.921-2.716 12.655-5.437 17.2-4.902 8.17-12.527 13.307-22.872 15.41a55.917 55.917 0 01-11.373 1.127c-12.88-.03-25.955-.046-39.227-.046a.774.774 0 01-.773-.773v-85.309c0-.279.23-.509.509-.509zm47.018 24.073c-2.939-2.485-6.354-3.818-10.245-4-2.88-.14-6.076-.155-9.591-.046a.89.89 0 00-.864.891l.155 44.819c0 .254.2.467.454.481 3.346.219 7.382.191 12.11-.081 2.66-.152 4.975-.876 6.945-2.173 1.843-1.207 3.315-3 4.418-5.382a19.563 19.563 0 001.6-5.373c.066-.454.248-2.29.545-5.509.649-7.006-.16-13.57-2.427-19.69-.479-1.292-1.512-2.603-3.1-3.937zM691.909 842.433l65.627-.055c.254 0 .463.21.463.464v17.245c0 .26-.213.473-.472.473h-38.618a.457.457 0 00-.455.455v14.2c0 .439.36.8.8.8h32.382c.344 0 .627.279.627.618l.055 16.036c0 .34-.283.618-.628.618l-32.736.055a.452.452 0 00-.445.454l-.328 34.673a.465.465 0 01-.472.446l-25.9-.11a.461.461 0 01-.455-.463l.11-85.446c0-.254.2-.463.445-.463z" fill="#e51d1d" fill-rule="nonzero"/></g></svg>